<svg width="275" height="57" viewBox="0 0 275 57" fill="none" xmlns="http://www.w3.org/2000/svg">
<path d="M44.3839 7.33486C49.1572 11.9319 51.8871 18.1369 51.9966 24.6377C52.106 31.1385 49.5863 37.4254 44.9703 42.1692L44.3839 42.7535L32.1267 54.5569C30.5714 56.054 28.4835 56.9257 26.2859 56.9955C24.0883 57.0652 21.9454 56.3278 20.2912 54.9326L19.8752 54.5569L7.61507 42.7507C2.73922 38.0543 0 31.6846 0 25.0428C0 18.401 2.73922 12.0313 7.61507 7.33486C12.4909 2.63843 19.104 0 25.9995 0C32.895 0 39.508 2.63843 44.3839 7.33486ZM25.9995 16.6952C24.8614 16.6952 23.7344 16.9112 22.683 17.3307C21.6315 17.7502 20.6761 18.365 19.8714 19.1402C19.0666 19.9153 18.4283 20.8356 17.9927 21.8483C17.5572 22.8611 17.333 23.9466 17.333 25.0428C17.333 26.139 17.5572 27.2245 17.9927 28.2373C18.4283 29.25 19.0666 30.1703 19.8714 30.9454C20.6761 31.7205 21.6315 32.3354 22.683 32.7549C23.7344 33.1744 24.8614 33.3903 25.9995 33.3903C28.298 33.3903 30.5023 32.5109 32.1276 30.9454C33.7529 29.3799 34.6659 27.2567 34.6659 25.0428C34.6659 22.8289 33.7529 20.7057 32.1276 19.1402C30.5023 17.5747 28.298 16.6952 25.9995 16.6952Z" fill="#FFCF20"/>
<path d="M84.6229 42.5L76.7152 14.8636H83.098L87.6726 34.0661H87.902L92.9489 14.8636H98.4141L103.447 34.1065H103.69L108.265 14.8636H114.648L106.74 42.5H101.045L95.7827 24.4311H95.5668L90.3175 42.5H84.6229ZM123.416 30.517V42.5H117.667V14.8636H123.254V25.4297H123.497C123.964 24.2062 124.72 23.2481 125.764 22.5554C126.807 21.8537 128.116 21.5028 129.691 21.5028C131.13 21.5028 132.385 21.8177 133.455 22.4474C134.535 23.0682 135.372 23.9633 135.965 25.1328C136.568 26.2933 136.865 27.6832 136.856 29.3026V42.5H131.107V30.3281C131.116 29.0507 130.793 28.0566 130.136 27.3459C129.488 26.6352 128.579 26.2798 127.41 26.2798C126.627 26.2798 125.935 26.4463 125.332 26.7791C124.738 27.112 124.27 27.5978 123.928 28.2365C123.596 28.8662 123.425 29.6264 123.416 30.517ZM150.745 42.9048C148.649 42.9048 146.836 42.4595 145.307 41.5689C143.786 40.6693 142.612 39.4188 141.785 37.8175C140.957 36.2071 140.543 34.3404 140.543 32.2173C140.543 30.0762 140.957 28.205 141.785 26.6037C142.612 24.9934 143.786 23.7429 145.307 22.8523C146.836 21.9527 148.649 21.5028 150.745 21.5028C152.841 21.5028 154.649 21.9527 156.17 22.8523C157.699 23.7429 158.878 24.9934 159.705 26.6037C160.533 28.205 160.947 30.0762 160.947 32.2173C160.947 34.3404 160.533 36.2071 159.705 37.8175C158.878 39.4188 157.699 40.6693 156.17 41.5689C154.649 42.4595 152.841 42.9048 150.745 42.9048ZM150.772 38.4517C151.726 38.4517 152.522 38.1818 153.161 37.642C153.799 37.0933 154.281 36.3466 154.604 35.402C154.937 34.4574 155.104 33.3823 155.104 32.1768C155.104 30.9714 154.937 29.8963 154.604 28.9517C154.281 28.0071 153.799 27.2604 153.161 26.7116C152.522 26.1629 151.726 25.8885 150.772 25.8885C149.809 25.8885 149 26.1629 148.343 26.7116C147.695 27.2604 147.205 28.0071 146.872 28.9517C146.548 29.8963 146.386 30.9714 146.386 32.1768C146.386 33.3823 146.548 34.4574 146.872 35.402C147.205 36.3466 147.695 37.0933 148.343 37.642C149 38.1818 149.809 38.4517 150.772 38.4517ZM162.219 19.6811V14.8636H184.916V19.6811H176.455V42.5H170.68V19.6811H162.219ZM194.986 42.9048C192.854 42.9048 191.019 42.473 189.48 41.6094C187.951 40.7367 186.773 39.5043 185.945 37.9119C185.117 36.3106 184.703 34.4169 184.703 32.2308C184.703 30.0987 185.117 28.2275 185.945 26.6172C186.773 25.0069 187.938 23.7519 189.44 22.8523C190.951 21.9527 192.724 21.5028 194.757 21.5028C196.124 21.5028 197.397 21.7232 198.576 22.1641C199.763 22.5959 200.798 23.2481 201.679 24.1207C202.57 24.9934 203.263 26.0909 203.757 27.4134C204.252 28.7268 204.5 30.2652 204.5 32.0284V33.6072H186.998V30.0447H199.088C199.088 29.2171 198.908 28.4839 198.549 27.8452C198.189 27.2064 197.69 26.7071 197.051 26.3473C196.421 25.9785 195.688 25.794 194.851 25.794C193.979 25.794 193.205 25.9964 192.53 26.4013C191.864 26.7971 191.343 27.3324 190.965 28.0071C190.587 28.6728 190.394 29.415 190.385 30.2337V33.6207C190.385 34.6463 190.574 35.5324 190.951 36.2791C191.338 37.0258 191.882 37.6016 192.584 38.0064C193.286 38.4112 194.118 38.6136 195.081 38.6136C195.719 38.6136 196.304 38.5237 196.835 38.3438C197.366 38.1638 197.82 37.8939 198.198 37.5341C198.576 37.1742 198.864 36.7334 199.061 36.2116L204.378 36.5625C204.108 37.84 203.555 38.9555 202.718 39.9091C201.891 40.8537 200.82 41.5914 199.507 42.1222C198.202 42.6439 196.695 42.9048 194.986 42.9048ZM214.162 42.8913C212.839 42.8913 211.661 42.6619 210.626 42.2031C209.592 41.7353 208.773 41.0471 208.17 40.1385C207.576 39.2209 207.279 38.0784 207.279 36.7109C207.279 35.5594 207.491 34.5923 207.914 33.8097C208.337 33.027 208.912 32.3973 209.641 31.9205C210.37 31.4437 211.197 31.0838 212.124 30.8409C213.06 30.598 214.04 30.4271 215.066 30.3281C216.271 30.2022 217.243 30.0852 217.98 29.9773C218.718 29.8603 219.253 29.6894 219.586 29.4645C219.919 29.2396 220.086 28.9067 220.086 28.4659V28.3849C220.086 27.5303 219.816 26.8691 219.276 26.4013C218.745 25.9335 217.989 25.6996 217.009 25.6996C215.974 25.6996 215.151 25.929 214.539 26.3878C213.928 26.8376 213.523 27.4044 213.325 28.0881L208.008 27.6562C208.278 26.3968 208.809 25.3082 209.6 24.3906C210.392 23.464 211.413 22.7533 212.664 22.2585C213.923 21.7547 215.381 21.5028 217.036 21.5028C218.187 21.5028 219.289 21.6378 220.342 21.9077C221.404 22.1776 222.344 22.5959 223.162 23.1626C223.99 23.7294 224.642 24.4581 225.119 25.3487C225.596 26.2303 225.834 27.2874 225.834 28.5199V42.5H220.382V39.6257H220.221C219.888 40.2734 219.442 40.8447 218.885 41.3395C218.327 41.8253 217.657 42.2076 216.874 42.4865C216.091 42.7564 215.187 42.8913 214.162 42.8913ZM215.808 38.924C216.654 38.924 217.4 38.7576 218.048 38.4247C218.696 38.0829 219.204 37.6241 219.573 37.0483C219.942 36.4725 220.126 35.8203 220.126 35.0916V32.892C219.946 33.009 219.699 33.117 219.384 33.2159C219.078 33.3059 218.732 33.3913 218.345 33.4723C217.958 33.5443 217.571 33.6117 217.184 33.6747C216.797 33.7287 216.447 33.7782 216.132 33.8232C215.457 33.9221 214.868 34.0795 214.364 34.2955C213.86 34.5114 213.469 34.8037 213.19 35.1726C212.911 35.5324 212.772 35.9822 212.772 36.522C212.772 37.3047 213.055 37.9029 213.622 38.3168C214.198 38.7216 214.926 38.924 215.808 38.924ZM239.659 42.9048C237.536 42.9048 235.71 42.455 234.18 41.5554C232.66 40.6468 231.491 39.3873 230.672 37.777C229.862 36.1667 229.457 34.3134 229.457 32.2173C229.457 30.0942 229.867 28.232 230.685 26.6307C231.513 25.0204 232.687 23.7654 234.207 22.8658C235.728 21.9571 237.536 21.5028 239.632 21.5028C241.44 21.5028 243.024 21.8312 244.382 22.4879C245.741 23.1446 246.816 24.0668 247.607 25.2543C248.399 26.4418 248.835 27.8362 248.916 29.4375H243.491C243.339 28.4029 242.934 27.5708 242.277 26.9411C241.629 26.3023 240.779 25.983 239.727 25.983C238.836 25.983 238.058 26.2259 237.392 26.7116C236.735 27.1884 236.223 27.8857 235.854 28.8033C235.485 29.7209 235.3 30.8319 235.3 32.1364C235.3 33.4588 235.48 34.5833 235.84 35.5099C236.209 36.4366 236.726 37.1428 237.392 37.6286C238.058 38.1143 238.836 38.3572 239.727 38.3572C240.383 38.3572 240.973 38.2223 241.494 37.9524C242.025 37.6825 242.461 37.2912 242.803 36.7784C243.154 36.2566 243.384 35.6314 243.491 34.9027H248.916C248.826 36.486 248.394 37.8804 247.621 39.0859C246.856 40.2824 245.799 41.218 244.45 41.8928C243.1 42.5675 241.503 42.9048 239.659 42.9048ZM258.345 30.517V42.5H252.597V14.8636H258.183V25.4297H258.426C258.894 24.2062 259.65 23.2481 260.693 22.5554C261.737 21.8537 263.046 21.5028 264.62 21.5028C266.06 21.5028 267.315 21.8177 268.385 22.4474C269.465 23.0682 270.301 23.9633 270.895 25.1328C271.498 26.2933 271.795 27.6832 271.786 29.3026V42.5H266.037V30.3281C266.046 29.0507 265.722 28.0566 265.066 27.3459C264.418 26.6352 263.509 26.2798 262.34 26.2798C261.557 26.2798 260.864 26.4463 260.262 26.7791C259.668 27.112 259.2 27.5978 258.858 28.2365C258.525 28.8662 258.354 29.6264 258.345 30.517Z" fill="#2D3647"/>
</svg>
